<?xml version="1.0" encoding="UTF-8"?>
<svg version="1.1" xmlns="http://www.w3.org/2000/svg" width="512" height="512">
<path d="M0 0 C5.90420214 3.60043031 9.39464617 8.22679235 12.4375 14.3125 C13.4375 19.3125 13.4375 19.3125 13.4375 31.3125 C24.3275 31.3125 35.2175 31.3125 46.4375 31.3125 C46.4375 28.0125 46.4375 24.7125 46.4375 21.3125 C47.82308418 12.53713352 50.8343347 7.41314384 57.55859375 1.609375 C63.92833487 -2.78720307 70.98774939 -2.34632148 78.4375 -1.6875 C85.07841615 -0.01135822 89.76391582 4.68550201 93.4375 10.3125 C96.7328655 17.35897305 96.4375 23.3725838 96.4375 31.3125 C107.3275 31.3125 118.2175 31.3125 129.4375 31.3125 C129.4375 27.3525 129.4375 23.3925 129.4375 19.3125 C131.6671236 10.61696795 134.69304425 4.94404861 142.53515625 0.29296875 C148.79949722 -2.93567516 157.15418176 -2.75832956 163.890625 -1.07421875 C171.08128369 2.13892992 175.58523296 8.1818324 178.4375 15.3125 C178.4375 20.5925 178.4375 25.8725 178.4375 31.3125 C189.6575 31.3125 200.8775 31.3125 212.4375 31.3125 C212.4375 26.6925 212.4375 22.0725 212.4375 17.3125 C213.65457226 13.79168381 214.56531927 11.35887074 216.4375 8.3125 C216.994375 7.405 217.55125 6.4975 218.125 5.5625 C223.87971882 -0.03668588 228.91009885 -2.02438523 237 -2.25 C245.19027346 -1.93876961 250.1742816 -0.3837839 255.75 5.625 C262.10545271 13.8853568 261.78511626 21.30887646 261.4375 31.3125 C262.59765625 31.25449219 263.7578125 31.19648437 264.953125 31.13671875 C277.54037516 30.69652957 287.55497047 32.3838065 297.62890625 40.59375 C305.55054988 48.12187786 310.95004419 57.67261302 311.57451439 68.74100494 C311.58008669 69.59270012 311.58565899 70.44439529 311.59140015 71.32189941 C311.60000061 72.30600296 311.60860107 73.29010651 311.61746216 74.30403137 C311.62385208 75.90633858 311.62385208 75.90633858 311.63037109 77.54101562 C311.63854858 78.67488205 311.64672607 79.80874847 311.65515137 80.97697449 C311.67993962 84.72422766 311.69650018 88.47144325 311.7109375 92.21875 C311.71626118 93.49873367 311.72158485 94.77871735 311.72706985 96.0974884 C311.7482786 101.47459049 311.76741088 106.8516804 311.77869225 112.22881317 C311.79494706 119.92389787 311.82819038 127.6184791 311.88509309 135.31337404 C311.92845664 141.38477067 311.94443591 147.45596959 311.95082474 153.5275116 C311.95755256 156.10796198 311.97281399 158.68840459 311.99671555 161.26875305 C312.02822097 164.87422366 312.02842567 168.47841311 312.02099609 172.08398438 C312.03740143 173.15218918 312.05380676 174.22039398 312.07070923 175.32096863 C312.00975133 182.53248779 312.00975133 182.53248779 309.08853149 186.51428223 C306.4375 188.3125 306.4375 188.3125 303.4375 188.3125 C303.4375 192.9325 303.4375 197.5525 303.4375 202.3125 C305.0875 202.6425 306.7375 202.9725 308.4375 203.3125 C310.48785893 205.34415927 311.32637718 206.66430221 311.81469816 209.51275915 C311.81572729 210.31831371 311.81675642 211.12386827 311.81781673 211.95383358 C311.82625668 212.8873307 311.83469662 213.82082783 311.84339231 214.78261274 C311.83738227 215.80486796 311.83137222 216.82712318 311.82518005 217.88035583 C311.83325836 219.5133119 311.83325836 219.5133119 311.84149987 221.17925698 C311.85584797 224.8402402 311.8486585 228.50086532 311.84155273 232.16186523 C311.84725296 234.78172599 311.85421587 237.40158427 311.86235046 240.0214386 C311.87956314 246.40878309 311.88037275 252.7960293 311.87513756 259.18339097 C311.87109634 264.37913279 311.87253887 269.57484558 311.87788582 274.77058601 C311.87863424 275.51008747 311.87938266 276.24958892 311.88015376 277.01149951 C311.88168527 278.51389488 311.88322362 280.01629024 311.88476873 281.51868559 C311.89850469 295.61702706 311.8930502 309.71531308 311.88158352 323.8136533 C311.8716676 336.69245928 311.88456137 349.57112126 311.90851771 362.44990503 C311.93294798 375.68368462 311.94250586 388.91739725 311.93586498 402.15119892 C311.9323792 409.57676281 311.93456138 417.0022162 311.95211601 424.42776299 C311.96688794 430.75475218 311.96740961 437.08155323 311.9500451 443.40853893 C311.94157007 446.63251244 311.94149232 449.85608394 311.95469666 453.08005142 C312.07911819 485.98284615 312.07911819 485.98284615 299.625 499.2421875 C292.86922241 505.58934951 284.50949319 510.34248515 275.09960938 510.50537109 C274.25192993 510.52143402 273.40425049 510.53749695 272.53088379 510.55404663 C268.6818956 510.59868806 264.83307301 510.63951127 260.98388672 510.66259766 C258.95284603 510.67920017 256.92186477 510.70654621 254.89111328 510.74462891 C251.95835164 510.79930026 249.02695198 510.82125073 246.09375 510.8359375 C245.18637085 510.85860687 244.2789917 510.88127625 243.34411621 510.90463257 C237.05492124 510.88348727 237.05492124 510.88348727 233.83398438 507.90478516 C232.4375 505.3125 232.4375 505.3125 232.4375 503.3125 C227.8175 503.3125 223.1975 503.3125 218.4375 503.3125 C218.1075 504.9625 217.7775 506.6125 217.4375 508.3125 C214.27314974 510.42206684 213.5276367 510.56345976 209.91362762 510.56976891 C208.98088815 510.5762178 208.04814868 510.58266669 207.08714437 510.589311 C206.06061207 510.5862138 205.03407977 510.5831166 203.97644043 510.57992554 C202.88724635 510.58445665 201.79805226 510.58898776 200.6758523 510.59365618 C197.00716633 510.60636867 193.33862751 510.60467537 189.66992188 510.60302734 C187.0469646 510.60900851 184.42400908 510.6158131 181.80105591 510.62338257 C175.40290354 510.64001163 169.00478801 510.64549308 162.60661584 510.64660732 C157.40320995 510.64755741 152.19981623 510.65166574 146.99641418 510.65800858 C132.23939714 510.67563037 117.4824092 510.68484661 102.72538155 510.68334763 C101.53148858 510.68322776 101.53148858 510.68322776 100.31347656 510.68310547 C99.51657372 510.68302371 98.71967088 510.68294195 97.89861947 510.68285771 C84.99900432 510.68204574 72.09950621 510.70115837 59.19992489 510.7293822 C45.95037307 510.75814239 32.70087824 510.7719206 19.45129442 510.77019465 C12.01459345 510.76953157 4.57801498 510.77498714 -2.85865784 510.79655075 C-9.19450238 510.81480442 -15.53016898 510.81907614 -21.86602849 510.8055319 C-25.0958302 510.79902161 -28.32522179 510.80100657 -31.55500412 510.8162384 C-35.06549519 510.83171804 -38.57509876 510.82236334 -42.08557129 510.80697632 C-43.59860108 510.82240701 -43.59860108 510.82240701 -45.14219713 510.83814943 C-57.50662244 510.71889318 -66.42910395 506.0559154 -75.27734375 497.69140625 C-80.66920901 491.97026678 -84.55448845 484.12663447 -85.5625 476.3125 C-85.37525853 473.27172827 -84.94347487 470.26938874 -84.5300293 467.25219727 C-76.50255941 408.35147602 -76.50255941 408.35147602 -96.46984768 354.85508251 C-112.50865986 335.20384654 -132.26334011 318.16770053 -152.24368286 302.63072205 C-153.04186337 302.00225844 -153.84004389 301.37379484 -154.66241169 300.72628689 C-156.13520192 299.57419603 -157.62200622 298.43966387 -159.12588024 297.32845402 C-165.03823779 292.70317073 -167.95186258 287.08482572 -168.90781879 279.61372375 C-169.35104026 272.84074115 -167.20718805 266.79421841 -163.09054565 261.37467957 C-161.39962359 259.51181359 -159.65373683 257.73597551 -157.85546875 255.9765625 C-156.89003899 255.0075148 -156.89003899 255.0075148 -155.90510559 254.01889038 C-154.55207714 252.6668346 -153.19289773 251.32090843 -151.82788086 249.98095703 C-149.75006169 247.93756066 -147.69743561 245.87110653 -145.64648438 243.80078125 C-144.32174248 242.48293598 -142.99561628 241.16648048 -141.66796875 239.8515625 C-141.06043259 239.23906647 -140.45289642 238.62657043 -139.82695007 237.99551392 C-133.67269028 232.00723458 -127.21118211 229.3424781 -118.5625 229.3125 C-107.92250627 230.25192363 -100.86374307 237.84151804 -93.75390625 245.05078125 C-93.06075317 245.74901001 -92.3676001 246.44723877 -91.65344238 247.16662598 C-89.95386809 248.87938094 -88.25698867 250.59471597 -86.5625 252.3125 C-86.56011165 251.35796999 -86.55772329 250.40343998 -86.55526257 249.41998482 C-86.49642138 226.17501908 -86.42050995 202.93015661 -86.32678509 179.68530464 C-86.28185372 168.444184 -86.24243287 157.20309484 -86.21606445 145.96191406 C-86.1930629 136.16206552 -86.15964066 126.36231686 -86.11379844 116.56254756 C-86.08989543 111.3754961 -86.07114747 106.18854339 -86.06488609 101.00143814 C-86.05882207 96.11439227 -86.03877452 91.22759897 -86.00822449 86.34064674 C-85.99946538 84.55170129 -85.99571725 82.76272281 -85.99749184 80.97375679 C-86.00725773 66.57983384 -84.65275956 54.16219005 -74.5234375 43.08203125 C-67.54130983 36.50698876 -59.07040066 31.14458642 -49.234375 31.21484375 C-48.03554687 31.21967773 -48.03554687 31.21967773 -46.8125 31.22460938 C-45.575 31.23717773 -45.575 31.23717773 -44.3125 31.25 C-43.47203125 31.25451172 -42.6315625 31.25902344 -41.765625 31.26367188 C-39.69788599 31.27542039 -37.63018376 31.29335478 -35.5625 31.3125 C-35.60890625 30.2503125 -35.6553125 29.188125 -35.703125 28.09375 C-36.17961313 12.82988589 -36.17961313 12.82988589 -31.5625 7.3125 C-23.22154686 -1.41154494 -11.68534719 -5.50816938 0 0 Z " fill="#F7F3F1" transform="translate(184.5625,1.6875)"/>
<path d="M0 0 C5.90420214 3.60043031 9.39464617 8.22679235 12.4375 14.3125 C13.4375 19.3125 13.4375 19.3125 13.4375 31.3125 C24.3275 31.3125 35.2175 31.3125 46.4375 31.3125 C46.4375 28.0125 46.4375 24.7125 46.4375 21.3125 C47.82308418 12.53713352 50.8343347 7.41314384 57.55859375 1.609375 C63.92833487 -2.78720307 70.98774939 -2.34632148 78.4375 -1.6875 C85.07841615 -0.01135822 89.76391582 4.68550201 93.4375 10.3125 C96.7328655 17.35897305 96.4375 23.3725838 96.4375 31.3125 C107.3275 31.3125 118.2175 31.3125 129.4375 31.3125 C129.4375 27.3525 129.4375 23.3925 129.4375 19.3125 C131.6671236 10.61696795 134.69304425 4.94404861 142.53515625 0.29296875 C148.79949722 -2.93567516 157.15418176 -2.75832956 163.890625 -1.07421875 C171.08128369 2.13892992 175.58523296 8.1818324 178.4375 15.3125 C178.4375 20.5925 178.4375 25.8725 178.4375 31.3125 C189.6575 31.3125 200.8775 31.3125 212.4375 31.3125 C212.4375 26.6925 212.4375 22.0725 212.4375 17.3125 C213.65457226 13.79168381 214.56531927 11.35887074 216.4375 8.3125 C216.994375 7.405 217.55125 6.4975 218.125 5.5625 C223.87971882 -0.03668588 228.91009885 -2.02438523 237 -2.25 C245.19027346 -1.93876961 250.1742816 -0.3837839 255.75 5.625 C262.10545271 13.8853568 261.78511626 21.30887646 261.4375 31.3125 C262.59765625 31.25449219 263.7578125 31.19648437 264.953125 31.13671875 C277.54037516 30.69652957 287.55497047 32.3838065 297.62890625 40.59375 C305.55054988 48.12187786 310.95004419 57.67261302 311.57451439 68.74100494 C311.58008669 69.59270012 311.58565899 70.44439529 311.59140015 71.32189941 C311.60000061 72.30600296 311.60860107 73.29010651 311.61746216 74.30403137 C311.62385208 75.90633858 311.62385208 75.90633858 311.63037109 77.54101562 C311.63854858 78.67488205 311.64672607 79.80874847 311.65515137 80.97697449 C311.67993962 84.72422766 311.69650018 88.47144325 311.7109375 92.21875 C311.71626118 93.49873367 311.72158485 94.77871735 311.72706985 96.0974884 C311.7482786 101.47459049 311.76741088 106.8516804 311.77869225 112.22881317 C311.79494706 119.92389787 311.82819038 127.6184791 311.88509309 135.31337404 C311.92845664 141.38477067 311.94443591 147.45596959 311.95082474 153.5275116 C311.95755256 156.10796198 311.97281399 158.68840459 311.99671555 161.26875305 C312.02822097 164.87422366 312.02842567 168.47841311 312.02099609 172.08398438 C312.03740143 173.15218918 312.05380676 174.22039398 312.07070923 175.32096863 C312.03010684 180.12436433 312.0029358 182.53197651 309.12368774 186.50646973 C306.4375 188.3125 306.4375 188.3125 302.875 188.4375 C299.4375 187.3125 299.4375 187.3125 295.4375 182.3125 C295.4375 164.8225 295.4375 147.3325 295.4375 129.3125 C174.6575 129.3125 53.8775 129.3125 -70.5625 129.3125 C-70.5625 176.1725 -70.5625 223.0325 -70.5625 271.3125 C-69.2425 271.9725 -67.9225 272.6325 -66.5625 273.3125 C-65.11090571 274.59274938 -63.70911495 275.93041212 -62.34472656 277.30322266 C-61.52417786 278.12392242 -60.70362915 278.94462219 -59.85821533 279.79019165 C-58.98203552 280.67669403 -58.10585571 281.56319641 -57.203125 282.4765625 C-56.29874695 283.38377045 -55.3943689 284.29097839 -54.46258545 285.22567749 C-52.06453542 287.63134419 -49.67255382 290.04295736 -47.28179932 292.45587158 C-44.83864829 294.91952344 -42.38978794 297.37748577 -39.94140625 299.8359375 C-35.14316212 304.65623573 -30.35067268 309.48219843 -25.5625 314.3125 C-24.5725 313.9825 -23.5825 313.6525 -22.5625 313.3125 C-21.03460924 313.21904009 -19.50296521 313.18161805 -17.97222233 313.17827892 C-17.02471578 313.17382108 -16.07720923 313.16936324 -15.10099036 313.16477031 C-13.53652038 313.16504685 -13.53652038 313.16504685 -11.94044495 313.16532898 C-10.83406125 313.16165229 -9.72767754 313.1579756 -8.58776706 313.1541875 C-4.8613225 313.14312888 -1.1349058 313.13930317 2.59155273 313.13549805 C5.25542366 313.12923521 7.91929157 313.1226016 10.5831604 313.11558533 C18.58940787 313.09582552 26.5956566 313.08575672 34.60192236 313.07685754 C38.37051625 313.07247509 42.13910872 313.06710829 45.90770149 313.06186867 C58.43135887 313.04485922 70.95501537 313.03036332 83.47868252 313.02311993 C86.72838276 313.02120999 89.97808299 313.01928966 93.2277832 313.01733398 C94.43934949 313.01660837 94.43934949 313.01660837 95.67539186 313.0158681 C108.77049187 313.00756125 121.86550073 312.98221205 134.96056091 312.94975331 C148.39878452 312.91671482 161.83696173 312.8986742 175.27522618 312.89547569 C182.82293513 312.89330794 190.37051103 312.88452041 197.91818047 312.85901451 C204.34351381 312.83735153 210.76868178 312.82923536 217.1940475 312.83898129 C220.47361905 312.84353852 223.75277634 312.83939394 227.03231621 312.82221985 C230.58465691 312.80465287 234.13612164 312.81153261 237.6884613 312.82475281 C238.72921057 312.81378356 239.76995983 312.80281432 240.84224695 312.79151267 C247.77035574 312.85408341 247.77035574 312.85408341 251.07415867 315.1242342 C253.10976618 318.39153799 253.04196389 320.55139138 252.4375 324.3125 C250.30129238 326.78963835 248.54895743 328.12365859 245.28004205 328.67906141 C242.52647323 328.83544431 239.79955282 328.85311667 237.04154968 328.83148193 C235.98372105 328.83898319 234.92589242 328.84648444 233.83600837 328.854213 C230.2859004 328.87453785 226.73642818 328.86637773 223.1862793 328.85839844 C220.64369574 328.86713079 218.10111769 328.87761538 215.55854797 328.88972473 C210.08174825 328.91185955 204.60514214 328.92178519 199.12830162 328.92061615 C191.20978188 328.91894702 183.29143868 328.93928046 175.37296603 328.96497145 C162.52558947 329.00605701 149.67824466 329.02936651 136.83081055 329.04150391 C124.35128731 329.05333178 111.87182386 329.07352729 99.39233398 329.10498047 C98.62300274 329.10691657 97.8536715 329.10885267 97.06102719 329.11084744 C93.20148962 329.120612 89.3419525 329.13054112 85.48241556 329.14055204 C53.46746944 329.22338004 21.45253522 329.27736205 -10.5625 329.3125 C-9.81303604 330.05974335 -9.06357208 330.80698669 -8.29139709 331.57687378 C-1.24006739 338.6079607 5.80864233 345.64166468 12.85477352 352.67796135 C16.47762548 356.29558738 20.10140483 359.91227431 23.72729492 363.52685547 C27.22427792 367.01299933 30.71883593 370.5015569 34.21170235 373.9918251 C35.54692472 375.32519509 36.88302911 376.65768241 38.22001457 377.98928452 C40.08771674 379.84976268 41.95230151 381.71331115 43.81616211 383.57763672 C44.37361115 384.13149048 44.93106018 384.68534424 45.50540161 385.25598145 C50.3833715 390.14719759 50.3833715 390.14719759 50.52842712 393.27001953 C50.50650047 394.47053955 50.50650047 394.47053955 50.48413086 395.6953125 C50.46563332 397.05813354 50.46563332 397.05813354 50.44676208 398.44848633 C50.43210403 399.43486084 50.41744598 400.42123535 50.40234375 401.4375 C50.39630932 403.52733757 50.39314815 405.61718504 50.39257812 407.70703125 C50.39086537 411.00188751 50.37537965 414.29313622 50.31079102 417.58740234 C49.41423657 430.33414897 49.41423657 430.33414897 53.69970703 441.796875 C56.33272268 444.39914623 56.33272268 444.39914623 59.18969727 446.28515625 C61.4375 448.3125 61.4375 448.3125 62.34350586 451.875 C62.4375 455.3125 62.4375 455.3125 60.9375 458.25 C58.4375 460.3125 58.4375 460.3125 55.02880859 460.7512207 C51.4375 460.3125 51.4375 460.3125 49.39697266 458.14916992 C48.7632373 457.22724854 48.12950195 456.30532715 47.4765625 455.35546875 C43.04367671 450.59468695 39.9404422 449.66226018 33.48309326 449.38088989 C28.25350022 449.35041958 23.03899025 449.44759645 17.8125 449.625 C14.6089994 449.71744581 11.40819766 449.79439994 8.20352173 449.82865906 C6.21939336 449.85114448 4.2352624 449.90689022 2.25326538 450.00154114 C-2.55348195 450.0692144 -5.70466799 449.73256092 -9.43554688 446.57055664 C-10.83287221 445.17253719 -12.20569078 443.74987443 -13.5625 442.3125 C-15.00374856 440.89334132 -16.44520741 439.47439102 -17.88985443 438.05869198 C-20.12088981 435.86131866 -22.32671098 433.63937365 -24.53298569 431.41717911 C-26.33801608 429.59924568 -28.1462744 427.78457728 -29.95535278 425.97067261 C-33.78557567 422.12910532 -37.61181199 418.28358273 -41.4375 414.4375 C-45.89392889 409.95745611 -50.35198427 405.4790555 -54.81424332 401.00481796 C-56.59671089 399.21586363 -58.37614599 397.42392974 -60.15548706 395.63186646 C-61.2413691 394.54235427 -62.32739044 393.4529809 -63.41357422 392.36376953 C-64.15537178 391.61422249 -64.15537178 391.61422249 -64.91215515 390.84953308 C-67.48886239 388.25208798 -67.48886239 388.25208798 -70.5625 386.3125 C-70.52438106 397.6310348 -70.4649289 408.94924042 -70.37859726 420.26751614 C-70.3391681 425.52365261 -70.30695719 430.77962269 -70.29150391 436.03588867 C-70.27630737 441.11300912 -70.24180844 446.18967198 -70.19419098 451.26658821 C-70.1794081 453.19891433 -70.17146077 455.1313058 -70.17061615 457.06368828 C-70.1682354 459.78049801 -70.14106749 462.49605444 -70.10839844 465.21264648 C-70.1134288 466.00315399 -70.11845917 466.7936615 -70.12364197 467.60812378 C-69.98880551 474.90407926 -67.39307907 480.51279084 -63.4375 486.5625 C-56.37443849 493.31847188 -48.93735422 495.05387256 -39.40910339 494.93154907 C-38.3301127 494.93778805 -37.25112201 494.94402703 -36.13943464 494.95045507 C-32.54724701 494.96530009 -28.95616024 494.94477706 -25.36401367 494.92431641 C-22.77954728 494.92785946 -20.19508314 494.93363919 -17.61062622 494.94148254 C-12.05749763 494.95505561 -6.50461627 494.95083998 -0.95149803 494.93465042 C7.0826496 494.91151732 15.11655106 494.91891969 23.15070709 494.93418162 C36.19481216 494.9584163 49.23883813 494.96267254 62.28295898 494.95214844 C63.0625241 494.95152461 63.84208922 494.95090079 64.64527752 494.95025806 C66.22312365 494.94898672 67.80096978 494.94771248 69.3788159 494.94643535 C70.16114552 494.94580297 70.94347514 494.94517059 71.74951172 494.94451904 C72.92408593 494.94356182 72.92408593 494.94356182 74.12238892 494.94258527 C82.82955766 494.93577234 91.53672529 494.93378819 100.24389648 494.93359375 C101.02402207 494.93357092 101.80414766 494.93354809 102.60791341 494.93352456 C115.61132166 494.93359378 128.61469989 494.94561607 141.61809367 494.96455324 C149.63396859 494.97551615 157.64968629 494.97468818 165.66555353 494.9586135 C171.80083659 494.94691972 177.93602899 494.9499059 184.07131577 494.95824242 C186.58965496 494.95905459 189.10800184 494.95467872 191.62632179 494.94479942 C195.05738854 494.93198773 198.48795678 494.93742794 201.91902161 494.94741821 C202.9209556 494.93916004 203.9228896 494.93090186 204.95518523 494.92239344 C209.89300939 494.95660178 213.48280099 494.98263115 217.4375 498.3125 C218.28515625 500.21484375 218.28515625 500.21484375 218.5 502.25 C218.59410156 502.91902344 218.68820312 503.58804687 218.78515625 504.27734375 C218.23166434 507.51744809 217.11152334 508.38311655 214.4375 510.3125 C210.91791461 510.9281984 207.42127742 510.85151146 203.85618591 510.82043457 C202.76613741 510.82667453 201.6760889 510.8329145 200.55300862 510.83934355 C196.88725353 510.85534374 193.22215693 510.84264101 189.55639648 510.83007812 C186.9332897 510.83549631 184.31018596 510.84261725 181.68708801 510.85131836 C175.29236048 510.86912329 168.89782055 510.86525369 162.50308561 510.8536678 C157.30255372 510.84463594 152.10207442 510.84340841 146.90153694 510.84776306 C146.16145804 510.84837599 145.42137914 510.84898893 144.65887361 510.84962043 C143.15534677 510.85089935 141.65181995 510.8521962 140.14829315 510.8535108 C126.04045302 510.8649238 111.93271675 510.85179453 97.82489366 510.83030933 C85.73306377 510.81246356 73.64138761 510.81552018 61.54956055 510.83398438 C47.50322265 510.85542312 33.45697606 510.86379783 19.41062409 510.85153532 C17.91047388 510.85026117 16.41032365 510.84900369 14.91017342 510.84776306 C14.17211965 510.84714596 13.43406588 510.84652886 12.67364685 510.84589306 C7.48600116 510.84244721 2.29841359 510.84825249 -2.8892231 510.85768127 C-9.22140285 510.86893721 -15.55338444 510.86578726 -21.88554168 510.8445583 C-25.1133111 510.83409176 -28.34068523 510.83202629 -31.56846237 510.84315491 C-35.07673401 510.85413254 -38.58408684 510.84031808 -42.09230042 510.82043457 C-43.10030482 510.82935746 -44.10830923 510.83828034 -45.14685923 510.84747362 C-57.50754322 510.71217853 -66.43033083 506.0547556 -75.27734375 497.69140625 C-80.66920901 491.97026678 -84.55448845 484.12663447 -85.5625 476.3125 C-85.37525853 473.27172827 -84.94347487 470.26938874 -84.5300293 467.25219727 C-76.50255941 408.35147602 -76.50255941 408.35147602 -96.46984768 354.85508251 C-112.50865986 335.20384654 -132.26334011 318.16770053 -152.24368286 302.63072205 C-153.04186337 302.00225844 -153.84004389 301.37379484 -154.66241169 300.72628689 C-156.13520192 299.57419603 -157.62200622 298.43966387 -159.12588024 297.32845402 C-165.03823779 292.70317073 -167.95186258 287.08482572 -168.90781879 279.61372375 C-169.35104026 272.84074115 -167.20718805 266.79421841 -163.09054565 261.37467957 C-161.39962359 259.51181359 -159.65373683 257.73597551 -157.85546875 255.9765625 C-156.89003899 255.0075148 -156.89003899 255.0075148 -155.90510559 254.01889038 C-154.55207714 252.6668346 -153.19289773 251.32090843 -151.82788086 249.98095703 C-149.75006169 247.93756066 -147.69743561 245.87110653 -145.64648438 243.80078125 C-144.32174248 242.48293598 -142.99561628 241.16648048 -141.66796875 239.8515625 C-141.06043259 239.23906647 -140.45289642 238.62657043 -139.82695007 237.99551392 C-133.67269028 232.00723458 -127.21118211 229.3424781 -118.5625 229.3125 C-107.92250627 230.25192363 -100.86374307 237.84151804 -93.75390625 245.05078125 C-93.06075317 245.74901001 -92.3676001 246.44723877 -91.65344238 247.16662598 C-89.95386809 248.87938094 -88.25698867 250.59471597 -86.5625 252.3125 C-86.56011165 251.35796999 -86.55772329 250.40343998 -86.55526257 249.41998482 C-86.49642138 226.17501908 -86.42050995 202.93015661 -86.32678509 179.68530464 C-86.28185372 168.444184 -86.24243287 157.20309484 -86.21606445 145.96191406 C-86.1930629 136.16206552 -86.15964066 126.36231686 -86.11379844 116.56254756 C-86.08989543 111.3754961 -86.07114747 106.18854339 -86.06488609 101.00143814 C-86.05882207 96.11439227 -86.03877452 91.22759897 -86.00822449 86.34064674 C-85.99946538 84.55170129 -85.99571725 82.76272281 -85.99749184 80.97375679 C-86.00725773 66.57983384 -84.65275956 54.16219005 -74.5234375 43.08203125 C-67.54130983 36.50698876 -59.07040066 31.14458642 -49.234375 31.21484375 C-48.03554687 31.21967773 -48.03554687 31.21967773 -46.8125 31.22460938 C-45.575 31.23717773 -45.575 31.23717773 -44.3125 31.25 C-43.47203125 31.25451172 -42.6315625 31.25902344 -41.765625 31.26367188 C-39.69788599 31.27542039 -37.63018376 31.29335478 -35.5625 31.3125 C-35.60890625 30.2503125 -35.6553125 29.188125 -35.703125 28.09375 C-36.17961313 12.82988589 -36.17961313 12.82988589 -31.5625 7.3125 C-23.22154686 -1.41154494 -11.68534719 -5.50816938 0 0 Z " fill="#010101" transform="translate(184.5625,1.6875)"/>
<path d="M0 0 C0.02578125 0.90621094 0.0515625 1.81242187 0.078125 2.74609375 C0.43361994 10.38115545 1.28911308 16.30640019 5 23 C5.33902344 23.71800781 5.67804688 24.43601562 6.02734375 25.17578125 C7.34109344 27.63972144 8.40182184 27.97440336 11 29 C12.155 29.53625 13.31 30.0725 14.5 30.625 C20.83682039 32.89824597 27.46581887 33.33818509 33.81640625 30.93359375 C39.57526326 27.78381652 43.3693175 24.04445188 46 18 C47.464169 12.14332401 47.56988701 6.02158179 48 0 C59.55 0 71.1 0 83 0 C83.495 6.93 83.495 6.93 84 14 C86.70032435 21.81165259 90.34399874 27.24099059 97.8515625 31.2734375 C105.28141033 33.78607695 113.1454251 32.3671596 120 29 C125.72890649 25.48453466 127.9413718 20.17588461 130 14 C130.33 9.38 130.66 4.76 131 0 C142.55 0 154.1 0 166 0 C166.33 4.62 166.66 9.24 167 14 C169.05883183 21.15689161 171.74026505 25.76740052 178 29.8125 C184.16999723 33.03472261 190.71922145 33.09977725 197.40234375 31.3828125 C199.30960218 30.69378432 201.16067291 29.85397329 203 29 C203.78375 28.690625 204.5675 28.38125 205.375 28.0625 C207.48885029 26.68036712 207.9274474 25.27152776 209 23 C209.34160156 22.38382813 209.68320312 21.76765625 210.03515625 21.1328125 C213.91122457 13.55753068 213.31542931 9.58398961 214 0 C225.55 0 237.1 0 249 0 C249.33 4.95 249.66 9.9 250 15 C252.18319392 21.80148874 254.91347322 26.14055994 261 30 C267.16971899 32.96758384 273.97522637 33.0214851 280.5703125 31.34765625 C287.45714722 28.62794017 291.11911573 24.17804584 294.8125 17.9375 C297.00481592 12.34064642 296.76149166 5.9298107 297 0 C307.02399175 -0.80073307 314.6872169 0.01176415 323 6 C339.45166132 22.70771831 331 43.10692528 331 68 C210.22 68 89.44 68 -35 68 C-35 15.30241935 -35 15.30241935 -26.80078125 6.57421875 C-18.65308782 -0.54838527 -10.33347587 -0.62000855 0 0 Z " fill="#FDCC68" transform="translate(149,48)"/>
<path d="M0 0 C4.95 0 9.9 0 15 0 C15.00410889 1.57934326 15.00821777 3.15868652 15.01245117 4.78588867 C15.0342281 10.6473857 15.0885044 16.50821011 15.15258789 22.36938477 C15.17578018 24.90577751 15.19016645 27.44226672 15.19555664 29.97875977 C15.20483658 33.62577524 15.24581053 37.27127064 15.29296875 40.91796875 C15.2890361 42.05147263 15.28510345 43.1849765 15.28105164 44.35282898 C15.22499082 50.84497997 15.22499082 50.84497997 18.41918945 56.19262695 C20.83557992 57.97893824 20.83557992 57.97893824 23 59 C23 63.95 23 68.9 23 74 C20.525 74.99 20.525 74.99 18 76 C15.88474078 79.17288883 15.75069031 79.91703756 15.75504684 83.54228306 C15.7493989 84.94754241 15.7493989 84.94754241 15.74363685 86.38119084 C15.75267803 87.92784889 15.75267803 87.92784889 15.76190186 89.50575256 C15.75956334 91.14672737 15.75956334 91.14672737 15.75717759 92.82085317 C15.75420987 96.50571401 15.76541887 100.19040031 15.77636719 103.87524414 C15.77689115 106.5096791 15.77659055 109.14410068 15.77513123 111.77853394 C15.77331847 117.46211747 15.77812145 123.1456641 15.78673553 128.8292408 C15.79977497 137.81737311 15.79221725 146.80543326 15.78131104 155.79356384 C15.77783267 158.86902321 15.77448764 161.94448272 15.77118301 165.01994228 C15.77035168 165.78859256 15.76952034 166.55724284 15.76866381 167.34918554 C15.75947744 176.1015225 15.75452965 184.85386008 15.75146484 193.60620117 C15.75117909 194.40635694 15.75089335 195.2065127 15.75059894 196.03091561 C15.74649805 208.98614032 15.75771021 221.94131891 15.77284035 234.89653332 C15.78782178 248.20149575 15.77980528 261.50631895 15.75222325 274.81126112 C15.73607147 283.01485235 15.73871934 291.21800463 15.76569638 299.4215694 C15.78261982 305.04888001 15.77769976 310.67590724 15.75581208 316.30319966 C15.7438799 319.54722417 15.74487688 322.79033221 15.76569176 326.03433418 C15.78681071 329.55869621 15.77090899 333.08106693 15.74603271 336.60536194 C15.76098305 337.62085226 15.77593339 338.63634257 15.79133677 339.68260533 C15.68163268 347.06324586 13.57422673 352.19333825 9 358 C3.65274709 363.02120357 -1.41364253 365.88431105 -8.875 366.125 C-9.90625 366.08375 -10.9375 366.0425 -12 366 C-11.61328125 365.59910156 -11.2265625 365.19820313 -10.828125 364.78515625 C-4.26499776 357.62095052 -0.88595568 349.82592781 -0.8613348 340.10419846 C-0.85586036 338.89097939 -0.85038591 337.67776033 -0.84474558 336.42777705 C-0.84366938 335.0796794 -0.84268469 333.73158167 -0.84178162 332.38348389 C-0.83721591 330.95284933 -0.83221587 329.5222161 -0.82681805 328.09158444 C-0.81322856 324.15568021 -0.80581623 320.21978463 -0.79939139 316.28386307 C-0.79139102 312.0412113 -0.77769199 307.79857754 -0.76467896 303.55593872 C-0.74291107 296.20372837 -0.72476771 288.8515162 -0.70907402 281.49929047 C-0.68637825 270.86915708 -0.65823501 260.23904364 -0.62875474 249.60892716 C-0.58107525 232.36299149 -0.53781203 215.11704767 -0.49731445 197.87109375 C-0.45796135 181.11653001 -0.41653556 164.36197351 -0.37231445 147.60742188 C-0.36959018 146.5749723 -0.36686591 145.54252272 -0.36405908 144.4787868 C-0.35037964 139.29938059 -0.33665936 134.11997449 -0.32291877 128.94056845 C-0.20894838 85.96039403 -0.10221365 42.98020386 0 0 Z " fill="#F8E9DF" transform="translate(465,131)"/>
<path d="M0 0 C2.6508097 2.86586621 3.37536996 4.76923193 3.38031673 8.64133358 C3.38875668 9.5748307 3.39719662 10.50832783 3.40589231 11.47011274 C3.39988227 12.49236796 3.39387222 13.51462318 3.38768005 14.56785583 C3.39306559 15.65649321 3.39845113 16.74513059 3.40399987 17.86675698 C3.41834797 21.5277402 3.4111585 25.18836532 3.40405273 28.84936523 C3.40975296 31.46922599 3.41671587 34.08908427 3.42485046 36.7089386 C3.44206314 43.09628309 3.44287275 49.4835293 3.43763756 55.87089097 C3.43359634 61.06663279 3.43503887 66.26234558 3.44038582 71.45808601 C3.44113424 72.19758747 3.44188266 72.93708892 3.44265376 73.69899951 C3.44418527 75.20139488 3.44572362 76.70379024 3.44726873 78.20618559 C3.46100469 92.30452706 3.4555502 106.40281308 3.44408352 120.5011533 C3.4341676 133.37995928 3.44706137 146.25862126 3.47101771 159.13740503 C3.49544798 172.37118462 3.50500586 185.60489725 3.49836498 198.83869892 C3.4948792 206.26426281 3.49706138 213.6897162 3.51461601 221.11526299 C3.52938794 227.44225218 3.52990961 233.76905323 3.5125451 240.09603893 C3.50407007 243.32001244 3.50399232 246.54358394 3.51719666 249.76755142 C3.64161819 282.67034615 3.64161819 282.67034615 -8.8125 295.9296875 C-15.56827759 302.27684951 -23.92800681 307.02998515 -33.33789062 307.19287109 C-34.60940979 307.21696548 -34.60940979 307.21696548 -35.90661621 307.24154663 C-39.7556044 307.28618806 -43.60442699 307.32701127 -47.45361328 307.35009766 C-49.48465397 307.36670017 -51.51563523 307.39404621 -53.54638672 307.43212891 C-56.47914836 307.48680026 -59.41054802 307.50875073 -62.34375 307.5234375 C-63.25112915 307.54610687 -64.1585083 307.56877625 -65.09338379 307.59213257 C-71.34654459 307.57110842 -71.34654459 307.57110842 -74.63867188 304.69384766 C-76 302 -76 302 -75.4375 298.375 C-73.42520314 293.65047694 -73.42520314 293.65047694 -71 292 C-68.16713584 291.71648843 -65.5433282 291.60675641 -62.7109375 291.62890625 C-61.02994604 291.61150869 -59.3489565 291.59392449 -57.66796875 291.57617188 C-55.02844442 291.56614589 -52.3890542 291.56249085 -49.74951172 291.56420898 C-36.28124038 291.87136179 -36.28124038 291.87136179 -24 287 C-22.63875 286.1646875 -22.63875 286.1646875 -21.25 285.3125 C-14.69842332 278.57893508 -13.26711139 271.88885965 -13.38768005 262.73907471 C-13.38214664 261.63643713 -13.37661323 260.53379955 -13.37091213 259.39774871 C-13.35837684 255.71953331 -13.38128473 252.04241109 -13.40405273 248.36425781 C-13.40214817 245.72080032 -13.39824137 243.07741803 -13.39175415 240.43397522 C-13.38157386 234.75040886 -13.38911146 229.06709193 -13.40841484 223.38355255 C-13.43596542 215.16080234 -13.43205505 206.93829233 -13.41982902 198.71551582 C-13.40045795 185.36581993 -13.40036231 172.01620344 -13.4152832 158.66650391 C-13.41616934 157.8684296 -13.41705547 157.07035529 -13.41796846 156.24809691 C-13.42160272 153.0141108 -13.42532011 149.7801248 -13.42913502 146.5461389 C-13.43960688 137.63476477 -13.44784637 128.72338962 -13.4543457 119.81201172 C-13.45493394 119.01370144 -13.45552217 118.21539115 -13.45612823 117.39288965 C-13.46540439 104.08666597 -13.45894085 90.78048971 -13.44203526 77.4742744 C-13.43244292 69.27033093 -13.43760908 61.0666421 -13.46180297 52.86272731 C-13.47753993 47.24585819 -13.47938927 41.62909773 -13.47026973 36.01221427 C-13.46553741 32.77095371 -13.46967831 29.53011729 -13.48690605 26.28888893 C-13.50467218 22.77663484 -13.49806497 19.26524697 -13.4853363 15.75299072 C-13.49650732 14.72702892 -13.50767834 13.70106711 -13.51918787 12.64401555 C-13.47995553 8.22813687 -13.4364311 5.71259732 -11.09076023 1.88262558 C-7.48551654 -1.36371701 -4.57704345 -1.52568115 0 0 Z " fill="#050504" transform="translate(493,205)"/>
<path d="M0 0 C1.64882982 -0.00935994 1.64882982 -0.00935994 3.33096933 -0.01890898 C7.02144096 -0.03488849 10.71125665 -0.02221469 14.4017334 -0.00964355 C17.04459059 -0.01506247 19.6874023 -0.02203884 22.33024597 -0.03088379 C28.76760745 -0.04867458 35.20478243 -0.04482662 41.64215124 -0.03323323 C46.87369847 -0.02420134 52.10519342 -0.02297383 57.33674622 -0.02732849 C58.08119733 -0.02794142 58.82564843 -0.02855436 59.59265867 -0.02918586 C61.10497536 -0.03046476 62.61729203 -0.03176161 64.12960869 -0.03307623 C78.31214345 -0.04448366 92.49457481 -0.03136579 106.67709261 -0.00987476 C118.84756502 0.0079964 131.01788483 0.00489233 143.18835449 -0.0135498 C157.31997424 -0.03495367 171.45150335 -0.04338501 185.58313704 -0.03110075 C187.08990445 -0.02982655 188.59667189 -0.02856906 190.10343933 -0.02732849 C191.21549008 -0.02640284 191.21549008 -0.02640284 192.35000649 -0.02545848 C197.5755483 -0.02200412 202.80103264 -0.02783577 208.02656555 -0.0372467 C214.39439222 -0.04846271 220.76202165 -0.0454352 227.12982571 -0.02412373 C230.379137 -0.01360766 233.62805122 -0.01165195 236.87737083 -0.02272034 C240.39863971 -0.0336112 243.91897646 -0.01998892 247.44018555 0 C248.98322098 -0.01338433 248.98322098 -0.01338433 250.55742884 -0.02703905 C254.91764991 0.02114526 257.52707879 0.10761712 261.35868073 2.32093048 C263.22009277 4.50793457 263.22009277 4.50793457 263.78259277 8.00793457 C263.22009277 11.50793457 263.22009277 11.50793457 261.85912418 13.69535923 C257.64977981 16.58647822 253.42299076 16.05501995 248.43309021 16.00914001 C247.32106297 16.01467441 246.20903572 16.02020881 245.06331068 16.02591091 C241.32359846 16.03956347 237.5845483 16.02452255 233.84484863 16.00964355 C231.16933855 16.01342504 228.49387327 16.01877068 225.81837463 16.02601624 C219.29798569 16.03996043 212.77779021 16.03238415 206.25741046 16.01734065 C198.66785784 16.00049563 191.07835361 16.00368886 183.48878808 16.00743473 C169.94988369 16.01331537 156.41107227 15.99913326 142.87219238 15.9744873 C129.72730017 15.95056117 116.58253215 15.94348462 103.43762207 15.95397949 C89.1306089 15.96538169 74.82365319 15.96732779 60.51664072 15.9528814 C58.99191924 15.95135552 57.46719776 15.94983516 55.94247627 15.94832039 C54.81712241 15.94718367 54.81712241 15.94718367 53.66903413 15.94602398 C48.37545173 15.94127611 43.08189493 15.94313611 37.78831291 15.94738579 C31.34028074 15.95230592 24.89236611 15.9463573 18.4443609 15.92649149 C15.15283607 15.91660129 11.86152771 15.91313482 8.56998825 15.919384 C5.00650192 15.92530293 1.44354975 15.91289657 -2.11988831 15.89561462 C-3.69019471 15.90462969 -3.69019471 15.90462969 -5.29222447 15.91382688 C-6.24321441 15.90538694 -7.19420436 15.896947 -8.17401218 15.8882513 C-8.99697617 15.88722218 -9.81994016 15.88619305 -10.66784245 15.88513273 C-13.33246019 15.40925296 -14.20517938 14.68923722 -15.77990723 12.50793457 C-16.48770699 6.9340114 -16.48770699 6.9340114 -15.77990723 4.50793457 C-11.23384673 -0.60434764 -6.36545249 -0.0552141 0 0 Z " fill="#060606" transform="translate(173.7799072265625,214.4920654296875)"/>
<path d="M0 0 C1.42648492 -0.01265991 1.42648492 -0.01265991 2.88178772 -0.02557558 C3.92865865 -0.01956553 4.97552958 -0.01355549 6.05412388 -0.00736332 C7.71982476 -0.01544163 7.71982476 -0.01544163 9.41917616 -0.02368313 C13.15954666 -0.03805008 16.89956761 -0.03083734 20.63995457 -0.023736 C23.31368739 -0.029435 25.98739465 -0.03629619 28.66111851 -0.04453373 C35.18127058 -0.06175335 41.70132641 -0.06255521 48.22149532 -0.05732083 C53.51983632 -0.0532837 58.81814882 -0.05471722 64.11648846 -0.06006908 C64.86982535 -0.06081751 65.62316225 -0.06156593 66.39932754 -0.06233703 C67.92960402 -0.06386847 69.45988049 -0.06540681 70.99015696 -0.066952 C85.34955832 -0.08068852 99.70890525 -0.07523131 114.06830538 -0.06376678 C127.21191484 -0.05383352 140.35538354 -0.0667746 153.49897128 -0.09070098 C166.98692826 -0.1150697 180.47481962 -0.12470532 193.96279818 -0.11804825 C201.53843691 -0.11455102 209.11396737 -0.11682118 216.6895895 -0.13429928 C223.13872983 -0.14899351 229.58768565 -0.14969336 236.03682225 -0.13222837 C239.3285315 -0.1236927 242.61984141 -0.12378335 245.91154575 -0.13687992 C249.47704677 -0.1499862 253.04164126 -0.13863349 256.60710239 -0.12088871 C258.17406271 -0.13529622 258.17406271 -0.13529622 259.77267879 -0.14999479 C266.72618915 -0.07843026 266.72618915 -0.07843026 270.03313637 2.19289207 C272.06591283 5.46008384 271.99832941 7.62069793 271.39410496 11.38031673 C269.2455735 13.90466221 267.48087315 15.2020789 264.17036819 15.74502563 C261.31103663 15.8987762 258.47763559 15.91308884 255.61419773 15.8882513 C254.51497785 15.89449127 253.41575797 15.90073123 252.2832284 15.90716028 C248.59275678 15.9231398 244.90294109 15.91046599 241.21246433 15.89789486 C238.56960714 15.90331377 235.92679543 15.91029015 233.28395176 15.91913509 C226.84659028 15.93692588 220.4094153 15.93307792 213.97204649 15.92148453 C208.74049926 15.91245265 203.50900431 15.91122514 198.27745152 15.9155798 C197.53300041 15.91619273 196.7885493 15.91680566 196.02153906 15.91743717 C194.50922237 15.91871606 192.9969057 15.92001291 191.48458904 15.92132753 C177.30205428 15.93273496 163.11962292 15.9196171 148.93710512 15.89812607 C136.76663271 15.88025491 124.5963129 15.88335897 112.42584324 15.90180111 C98.29422349 15.92320497 84.16269439 15.93163631 70.0310607 15.91935205 C68.52429328 15.91807785 67.01752585 15.91682037 65.5107584 15.9155798 C64.76939124 15.91496269 64.02802407 15.91434559 63.26419124 15.91370979 C58.03864943 15.91025543 52.81316509 15.91608707 47.58763218 15.92549801 C41.21980551 15.93671402 34.85217608 15.9336865 28.48437202 15.91237503 C25.23506073 15.90185896 21.98614651 15.89990325 18.7368269 15.91097164 C15.21555802 15.92186251 11.69522127 15.90824022 8.17401218 15.8882513 C6.63097676 15.90163563 6.63097676 15.90163563 5.05676889 15.91529036 C0.6354403 15.86643075 -1.8999057 15.80898986 -5.74252987 13.47576809 C-7.77902566 11.18562232 -8.24530269 10.33250704 -8.10589504 7.31781673 C-7.60589504 3.38031673 -7.60589504 3.38031673 -6.36251348 1.65799278 C-4.10081085 0.01294386 -2.78436522 0.00348189 0 0 Z " fill="#050505" transform="translate(165.60589504241943,165.61968326568604)"/>
<path d="M0 0 C1.10244901 -0.00623996 2.20489802 -0.01247993 3.34075457 -0.01890898 C7.04815014 -0.03490939 10.75489466 -0.02220656 14.46229553 -0.00964355 C17.11485728 -0.01506157 19.76737362 -0.02203727 22.41992188 -0.03088379 C28.88482574 -0.04868599 35.34954402 -0.04482138 41.8144552 -0.03323323 C47.06843286 -0.02420504 52.32235845 -0.02297223 57.57634163 -0.02732849 C58.32370359 -0.02794142 59.07106555 -0.02855436 59.84107484 -0.02918586 C61.35927007 -0.03046475 62.87746527 -0.0317616 64.39566047 -0.03307623 C78.63780225 -0.0444872 92.87984111 -0.03136065 107.12196601 -0.00987476 C119.34418472 0.00799305 131.56625145 0.00489577 143.78846741 -0.0135498 C157.97757853 -0.03495373 172.16659938 -0.04338466 186.35572439 -0.03110075 C187.86868607 -0.02982654 189.38164775 -0.02856906 190.89460945 -0.02732849 C192.01124884 -0.02640284 192.01124884 -0.02640284 193.1504466 -0.02545848 C198.3980181 -0.02200387 203.64553238 -0.02783639 208.89309502 -0.0372467 C215.28839396 -0.04846295 221.68349652 -0.04543486 228.07877295 -0.02412373 C231.3422536 -0.01360741 234.60533888 -0.01165221 237.86882782 -0.02272034 C241.4054755 -0.03361096 244.94119506 -0.01998913 248.4777832 0 C249.51104656 -0.00892289 250.54430991 -0.01784577 251.60888427 -0.02703905 C255.97902359 0.021046 258.60304403 0.10432248 262.44376469 2.32093048 C264.30238342 4.50793457 264.30238342 4.50793457 264.86488342 8.00793457 C264.30238342 11.50793457 264.30238342 11.50793457 262.93862152 13.69493866 C258.74145896 16.58141487 254.53793923 16.05857497 249.56007385 16.01586914 C247.89921666 16.02522908 247.89921666 16.02522908 246.2048068 16.03477812 C242.48125866 16.05077876 238.75835872 16.03807563 235.0348053 16.0255127 C232.37076903 16.03093067 229.70677796 16.03790631 227.04275513 16.04675293 C220.55011304 16.06455478 214.05765575 16.06069084 207.56500638 16.04910237 C202.28909036 16.04007483 197.0132262 16.03884109 191.73730469 16.04319763 C190.98687864 16.04381056 190.2364526 16.0444235 189.46328637 16.045055 C187.93888842 16.04633388 186.41449048 16.04763073 184.89009255 16.04894537 C170.59027718 16.06035604 156.29056431 16.04722985 141.99076575 16.0257439 C129.71649451 16.00787245 117.44237459 16.01097642 105.16810608 16.02941895 C90.920041 16.05081709 76.67206581 16.05925736 62.42398691 16.04696989 C60.90514534 16.04569567 59.38630376 16.04443819 57.86746216 16.04319763 C57.12013108 16.04258053 56.37279999 16.04196343 55.60282251 16.04132763 C50.33223899 16.03787155 45.0617124 16.0437086 39.7911377 16.05311584 C33.36946001 16.06432551 26.94797795 16.06131773 20.52632272 16.03999287 C17.24878946 16.02946824 13.9716506 16.02753134 10.69410896 16.03858948 C7.14397463 16.04946573 3.59476769 16.03587598 0.04469299 16.01586914 C-1.51540772 16.02925347 -1.51540772 16.02925347 -3.10702562 16.04290819 C-10.02931229 15.96686135 -10.02931229 15.96686135 -13.33776093 13.69493866 C-15.35037028 10.45813564 -15.2301674 8.2357903 -14.69761658 4.50793457 C-11.25289058 -1.02073059 -5.83159178 -0.05025102 0 0 Z " fill="#010101" transform="translate(172.69761657714844,264.4920654296875)"/>
<path d="M0 0 C3.66197323 1.54356399 6.01111019 3.75251396 8.81562805 6.54147339 C9.28527629 7.00588494 9.75492452 7.4702965 10.23880452 7.94878113 C11.80892632 9.50391843 13.37183404 11.06610585 14.93481445 12.62841797 C16.0597741 13.74575544 17.18513515 14.8626889 18.31086731 15.97924805 C21.36505316 19.01149614 24.41264722 22.05028577 27.45842385 25.09097815 C29.36033867 26.98925055 31.26354531 28.88621794 33.16719627 30.78274918 C39.80444296 37.3955103 46.43595743 44.01396448 53.06274414 50.63720703 C59.24716864 56.81799015 65.44461929 62.98549984 71.64809638 69.14715469 C76.96991401 74.434343 82.28213243 79.73104821 87.58701295 85.0352298 C90.75734352 88.20476548 93.93156918 91.3701538 97.1156559 94.52587509 C100.10698593 97.49114847 103.08625513 100.46801892 106.05651665 103.45439148 C107.15071493 104.55041378 108.24923084 105.64214438 109.35224152 106.72929764 C110.853044 108.2098237 112.33775335 109.70479152 113.81929016 111.20455933 C114.65569188 112.03894972 115.4920936 112.87334011 116.35384083 113.73301506 C118 116 118 116 117.90411663 118.13858223 C116.47755281 121.07562724 114.27688563 122.9994518 111.9375 125.25 C110.55884766 126.58804688 110.55884766 126.58804688 109.15234375 127.953125 C108.44207031 128.62859375 107.73179687 129.3040625 107 130 C103.31005165 128.45167187 100.96537289 126.21202218 98.15313721 123.39364624 C97.68011099 122.92232887 97.20708477 122.4510115 96.71972442 121.96541178 C95.13811205 120.38709002 93.56374771 118.80173322 91.98925781 117.21630859 C90.85610692 116.08259349 89.72251532 114.94931873 88.58851624 113.81645203 C85.51204264 110.74055258 82.44177726 107.65852279 79.37257862 104.5753665 C76.16372462 101.35401551 72.94921127 98.1383221 69.73529053 94.92202759 C63.65048594 88.83100521 57.57079785 82.73490221 51.49292541 76.63696349 C44.57308885 69.69477728 37.64757683 62.75826482 30.72157907 55.82222629 C16.47472256 41.55446098 2.23501872 27.27957531 -12 13 C-11.0402279 11.87434093 -10.0796177 10.74939642 -9.11865234 9.62475586 C-8.58380219 8.99822617 -8.04895203 8.37169647 -7.49789429 7.72618103 C-5.13334916 5.00126714 -2.58039756 2.51895952 0 0 Z " fill="#9CC3F9" transform="translate(75,302)"/>
<path d="M0 0 C3.68994835 1.54832813 6.03462711 3.78797782 8.84686279 6.60635376 C9.31988901 7.07767113 9.79291523 7.5489885 10.28027558 8.03458822 C11.86188795 9.61290998 13.43625229 11.19826678 15.01074219 12.78369141 C16.14389308 13.91740651 17.27748468 15.05068127 18.41148376 16.18354797 C21.48795736 19.25944742 24.55822274 22.34147721 27.62742138 25.4246335 C30.83627538 28.64598449 34.05078873 31.8616779 37.26470947 35.07797241 C43.34951406 41.16899479 49.42920215 47.26509779 55.50707459 53.36303651 C62.42691115 60.30522272 69.35242317 67.24173518 76.27842093 74.17777371 C90.52527744 88.44553902 104.76498128 102.72042469 119 117 C118.15356901 118.04796218 117.29723808 119.08792692 116.4375 120.125 C115.72400391 120.99511719 115.72400391 120.99511719 114.99609375 121.8828125 C112.22540048 124.82159088 109.06660344 127.37148276 106 130 C67.39 91.39 28.78 52.78 -11 13 C-9.07859132 9.15718264 -7.4073184 7.19568073 -4.375 4.25 C-3.55773437 3.45078125 -2.74046875 2.6515625 -1.8984375 1.828125 C-0.95871094 0.92320312 -0.95871094 0.92320312 0 0 Z " fill="#9FC7FE" transform="translate(98,279)"/>
<path d="M0 0 C1.09142492 -0.00935994 1.09142492 -0.00935994 2.20489883 -0.01890898 C4.63790747 -0.03483719 7.06991399 -0.02223615 9.50292969 -0.00964355 C11.24923283 -0.01506478 12.99553139 -0.02218744 14.74182129 -0.03088379 C19.48149324 -0.04912012 24.22081695 -0.04204834 28.960495 -0.02936745 C33.92028747 -0.0192414 38.8800501 -0.02863203 43.83984375 -0.03491211 C52.16899978 -0.04218966 60.49801395 -0.03259797 68.82714844 -0.0135498 C78.45720412 0.00821913 88.08692106 0.00116784 97.71696854 -0.02085543 C105.98462448 -0.03900634 114.25217844 -0.04156925 122.51984787 -0.03110075 C127.45799055 -0.02486413 132.39597399 -0.02403485 137.33410645 -0.0372467 C141.97665771 -0.04880008 146.61877218 -0.04078889 151.26127625 -0.01766968 C152.96525853 -0.01237984 154.66927757 -0.01390109 156.37324524 -0.02272034 C158.69919646 -0.03364904 161.02374743 -0.01994634 163.34960938 0 C165.3019046 0.00226215 165.3019046 0.00226215 167.29364014 0.00457001 C171.23076624 0.59070231 172.89704943 1.70858193 175.67480469 4.50793457 C176.53397924 7.45286839 176.07336678 9.36925806 175.67480469 12.50793457 C174.59667969 14.23021889 174.59667969 14.23021889 172.67480469 15.50793457 C170.17537665 15.80251959 167.92466395 15.91287495 165.42480469 15.8888855 C164.30932503 15.89590546 164.30932503 15.89590546 163.17131042 15.90306723 C160.6722953 15.91506075 158.17382416 15.90554327 155.67480469 15.89611816 C153.88614582 15.90018194 152.09748947 15.90552272 150.30883789 15.91204834 C145.44527051 15.92575085 140.58189356 15.9204112 135.71832275 15.91091108 C130.63480099 15.90332967 125.55129582 15.91035586 120.46777344 15.91506958 C111.92998316 15.92053157 103.39227066 15.9133239 94.85449219 15.89904785 C84.97569037 15.8827205 75.09707429 15.88800869 65.21827698 15.90452707 C56.74518745 15.91812932 48.27215392 15.92006777 39.79905701 15.91221106 C34.73465937 15.9075276 29.6703491 15.90692814 24.60595703 15.91682053 C19.84531943 15.92546959 15.0849219 15.9195061 10.3243103 15.90213776 C8.57433471 15.89816187 6.824339 15.89932571 5.07437134 15.90592575 C2.69090721 15.91408805 0.30821898 15.90388485 -2.07519531 15.8888855 C-2.77256302 15.89557766 -3.46993073 15.90226983 -4.18843079 15.90916479 C-6.9751384 15.87499921 -8.89296547 15.79529293 -11.24707031 14.23021889 C-12.77024436 11.79697713 -12.78872389 9.35912912 -12.91894531 6.54309082 C-11.14625047 0.46694599 -5.45397133 0.0063196 0 0 Z " fill="#070707" transform="translate(261.3251953125,363.4920654296875)"/>
<path d="M0 0 C1.9765625 1.07421875 1.9765625 1.07421875 3.625 2.6875 C4.60339844 3.62335938 4.60339844 3.62335938 5.6015625 4.578125 C6.39304688 5.37734375 7.18453125 6.1765625 8 7 C9.13209244 8.12051963 10.26496557 9.24025082 11.3984375 10.359375 C14.61995752 13.55246727 17.81459846 16.7708963 21 20 C19.63886987 23.04581486 18.10669904 25.13839026 15.74365234 27.48339844 C15.08311859 28.14378113 14.42258484 28.80416382 13.74203491 29.48455811 C13.03052277 30.18574768 12.31901062 30.88693726 11.5859375 31.609375 C10.85629791 32.33618469 10.12665833 33.06299438 9.37490845 33.81182861 C7.0462612 36.12929198 4.71075174 38.4396995 2.375 40.75 C0.79381347 42.32115444 -0.78692125 43.89276371 -2.3671875 45.46484375 C-6.2395669 49.31518653 -10.11760171 53.15976117 -14 57 C-21.40734809 50.71852773 -21.40734809 50.71852773 -24.4921875 47.640625 C-25.05164062 47.08246094 -25.61109375 46.52429688 -26.1875 45.94921875 C-26.744375 45.38847656 -27.30125 44.82773437 -27.875 44.25 C-28.74511719 43.38568359 -28.74511719 43.38568359 -29.6328125 42.50390625 C-34.85185247 37.27267226 -34.85185247 37.27267226 -35.42993164 32.30664062 C-35.36058392 27.93779581 -33.87482465 25.91006539 -30.9105072 22.82458496 C-30.32000076 22.25340942 -29.72949432 21.68223389 -29.12109375 21.09375 C-28.51620621 20.48358032 -27.91131866 19.87341064 -27.2881012 19.24475098 C-26.00899269 17.96458409 -24.7199033 16.69432151 -23.42163086 15.43359375 C-21.44129752 13.5037008 -19.50418754 11.53692182 -17.56835938 9.5625 C-16.31748915 8.32051 -15.06430704 7.0808432 -13.80859375 5.84375 C-12.94408852 4.96269592 -12.94408852 4.96269592 -12.06211853 4.06384277 C-8.11236484 0.29246597 -5.67056327 -0.76666673 0 0 Z " fill="#F88CB9" transform="translate(67,247)"/>
<path d="M0 0 C3.68994835 1.54832813 6.03462711 3.78797782 8.84686279 6.60635376 C9.31988901 7.07767113 9.79291523 7.5489885 10.28027558 8.03458822 C11.86188795 9.61290998 13.43625229 11.19826678 15.01074219 12.78369141 C16.14389308 13.91740651 17.27748468 15.05068127 18.41148376 16.18354797 C21.48795736 19.25944742 24.55822274 22.34147721 27.62742138 25.4246335 C30.83627538 28.64598449 34.05078873 31.8616779 37.26470947 35.07797241 C43.34951406 41.16899479 49.42920215 47.26509779 55.50707459 53.36303651 C62.42691115 60.30522272 69.35242317 67.24173518 76.27842093 74.17777371 C90.52527744 88.44553902 104.76498128 102.72042469 119 117 C117.02 119.31 115.04 121.62 113 124 C74.33333333 85.33333333 35.66666667 46.66666667 -3 8 C-3.61359375 8.30679687 -4.2271875 8.61359375 -4.859375 8.9296875 C-6.90625 9.953125 -8.953125 10.9765625 -11 12 C-7.49102731 7.81576108 -3.91939465 3.80411834 0 0 Z " fill="#90B2F9" transform="translate(98,279)"/>
<path d="M0 0 C7.25556378 -0.98939506 13.01387708 2.06460158 19 6 C21.44865533 8.45335524 23.30328107 10.98496709 25 14 C25.34771454 14.59576843 25.69542908 15.19153687 26.05368042 15.80535889 C27.16702641 18.38735649 27.24122442 20.23756454 27.22705078 23.04394531 C27.22689972 24.04468079 27.22674866 25.04541626 27.22659302 26.07647705 C27.21627045 27.14952087 27.20594788 28.2225647 27.1953125 29.328125 C27.1924826 30.43226746 27.18965271 31.53640991 27.18673706 32.67401123 C27.17554489 36.1994512 27.15044175 39.72463685 27.125 43.25 C27.11496897 45.64062133 27.10584333 48.03124664 27.09765625 50.421875 C27.07560865 56.28134795 27.04108511 62.14063086 27 68 C22.05 68 17.1 68 12 68 C11.9906543 66.60354248 11.98130859 65.20708496 11.97167969 63.76831055 C11.9315448 58.54403809 11.8657216 53.32034004 11.79248047 48.09643555 C11.76440651 45.84358142 11.74312508 43.59063127 11.72900391 41.33764648 C11.70738577 38.08267537 11.66063899 34.82884236 11.609375 31.57421875 C11.60814636 30.58105148 11.60691772 29.58788422 11.60565186 28.56462097 C11.42666775 19.84929275 9.61197535 10.76416328 3.25 4.375 C0 1.02941176 0 1.02941176 0 0 Z " fill="#FDBB60" transform="translate(453,48)"/>
<path d="M0 0 C0.74378906 0.07992188 1.48757813 0.15984375 2.25390625 0.2421875 C5.48503333 1.54851079 6.57117032 3.18553076 8.4375 6.125 C9.00260512 9.00583932 8.97524994 11.82170589 8.93359375 14.75 C8.93504898 15.5745166 8.93650421 16.3990332 8.93800354 17.24853516 C8.93634821 18.9866897 8.92482794 20.72485946 8.90405273 22.46289062 C8.87509253 25.11652168 8.88345183 27.76815372 8.89648438 30.421875 C8.89024642 32.114593 8.88185503 33.80730471 8.87109375 35.5 C8.87402939 36.28971191 8.87696503 37.07942383 8.87998962 37.89306641 C8.80195862 42.47171137 8.31651476 45.50813452 5.4375 49.125 C1.68702518 51.62531654 -0.12106266 51.66103554 -4.5625 51.125 C-7.31658595 49.12767416 -9.23354393 47.535217 -10.02960205 44.12255859 C-10.22469097 41.68272243 -10.25552376 39.29125051 -10.2265625 36.84375 C-10.23134613 35.95264526 -10.23612976 35.06154053 -10.24105835 34.14343262 C-10.24445272 32.26406076 -10.23528262 30.3846295 -10.21435547 28.50537109 C-10.18758156 25.63374802 -10.21411711 22.76603321 -10.24609375 19.89453125 C-10.24278957 18.06509557 -10.23638316 16.23566231 -10.2265625 14.40625 C-10.23668365 13.55091675 -10.24680481 12.6955835 -10.25723267 11.81433105 C-10.17093334 7.4101427 -9.97428846 5.64941472 -7.16577148 2.07275391 C-4.3537206 -0.03120764 -3.41208248 -0.48659263 0 0 Z " fill="#A9C1D2" transform="translate(422.5625,14.875)"/>
<path d="M0 0 C5.56117627 3.4249101 5.56117627 3.4249101 6.55795288 7.00268555 C6.77815791 9.44806626 6.80558202 11.82629459 6.76171875 14.28125 C6.76508743 15.17235474 6.76845612 16.06345947 6.77192688 16.98156738 C6.77162858 18.86098009 6.75643085 20.74044204 6.72729492 22.61962891 C6.68761849 25.49142369 6.70659127 28.35859801 6.73242188 31.23046875 C6.72486227 33.05991369 6.7139083 34.88934841 6.69921875 36.71875 C6.7096949 38.00174988 6.7096949 38.00174988 6.72038269 39.31066895 C6.61633786 43.71790983 6.41853152 45.47373608 3.58520508 49.03637695 C1.1004187 50.92372579 0.05763173 51.70599374 -3 51.6875 C-3.639375 51.71199219 -4.27875 51.73648438 -4.9375 51.76171875 C-8.30572155 50.51777329 -10.24288627 48.0206598 -12 45 C-12.6933674 42.00712213 -12.679248 39.12060714 -12.62890625 36.05859375 C-12.63131821 35.21329605 -12.63373016 34.36799835 -12.63621521 33.49708557 C-12.63523956 31.71781705 -12.62191336 29.93851712 -12.59692383 28.15942383 C-12.56255463 25.44181984 -12.57629278 22.72746032 -12.59570312 20.00976562 C-12.58880554 18.27602788 -12.57913393 16.54229849 -12.56640625 14.80859375 C-12.57136612 14.00014511 -12.57632599 13.19169647 -12.58143616 12.35874939 C-12.47683295 7.33170861 -11.78360572 4.64303011 -8 1 C-5.09704195 -0.45147903 -3.22738221 -0.37239025 0 0 Z " fill="#A9C2D4" transform="translate(176,15)"/>
<path d="M0 0 C4.00538252 0.64372219 5.65945826 1.72195826 8.5 4.5625 C10.11693064 7.79636127 9.68436668 11.34051856 9.703125 14.89453125 C9.70882507 15.72329269 9.71452515 16.55205414 9.72039795 17.40592957 C9.72985248 19.16196413 9.73638373 20.91801647 9.74023438 22.67407227 C9.74992406 25.35399596 9.7809359 28.03314753 9.8125 30.71289062 C9.81903173 32.41926628 9.82428154 34.12564742 9.828125 35.83203125 C9.8404718 36.63115433 9.8528186 37.4302774 9.86553955 38.25361633 C9.84724985 42.84847298 9.48542601 45.83858768 6.5 49.5625 C2.74952518 52.06281654 0.94143734 52.09853554 -3.5 51.5625 C-6.25408595 49.56517416 -8.17104393 47.972717 -8.96710205 44.56005859 C-9.16219097 42.12022243 -9.19302376 39.72875051 -9.1640625 37.28125 C-9.16884613 36.39014526 -9.17362976 35.49904053 -9.17855835 34.58093262 C-9.18195272 32.70156076 -9.17278262 30.8221295 -9.15185547 28.94287109 C-9.12508156 26.07124802 -9.15161711 23.20353321 -9.18359375 20.33203125 C-9.18028957 18.50259557 -9.17388316 16.67316231 -9.1640625 14.84375 C-9.17418365 13.98841675 -9.18430481 13.1330835 -9.19473267 12.25183105 C-9.10947037 7.90056656 -8.89606009 6.08169923 -6.17724609 2.51757812 C-3.5 0.5625 -3.5 0.5625 0 0 Z " fill="#AAC3D4" transform="translate(338.5,14.4375)"/>
<path d="M0 0 C2.69990662 1.79993774 4.5418865 3.083773 6 6 C6.13571688 8.85829117 6.21273921 11.69099566 6.23828125 14.55078125 C6.246353 15.40173874 6.25442474 16.25269623 6.26274109 17.12944031 C6.27658294 18.93254559 6.28730465 20.73567709 6.29516602 22.53881836 C6.31236789 25.29136067 6.35625049 28.04269838 6.40039062 30.79492188 C6.41051863 32.54686617 6.4190344 34.29882067 6.42578125 36.05078125 C6.44328934 36.87177811 6.46079742 37.69277496 6.47883606 38.53865051 C6.46364043 42.55874452 6.3055325 44.51849898 4.09838867 47.99682617 C1.40625398 50.56680467 0.42526087 50.94383347 -3.3125 51.4375 C-7 51 -7 51 -9.69116211 48.53149414 C-12.74680094 44.58169924 -12.70856523 40.90381414 -12.62890625 36.05859375 C-12.63131821 35.21329605 -12.63373016 34.36799835 -12.63621521 33.49708557 C-12.63523956 31.71781705 -12.62191336 29.93851712 -12.59692383 28.15942383 C-12.56255463 25.44181984 -12.57629278 22.72746032 -12.59570312 20.00976562 C-12.58880554 18.27602788 -12.57913393 16.54229849 -12.56640625 14.80859375 C-12.57136612 14.00014511 -12.57632599 13.19169647 -12.58143616 12.35874939 C-12.47683295 7.33170861 -11.78360572 4.64303011 -8 1 C-5.14675563 -0.42662219 -3.16545451 -0.31033868 0 0 Z " fill="#AAC2D4" transform="translate(259,15)"/>
<path d="M0 0 C5.59427367 0.9023022 7.96837477 3.68019928 11.875 7.625 C13.00709244 8.74551963 14.13996557 9.86525082 15.2734375 10.984375 C18.49495752 14.17746727 21.68959846 17.3958963 24.875 20.625 C23.33626823 24.34360179 22.39988612 24.98133541 18.875 27.625 C10.955 19.705 3.035 11.785 -5.125 3.625 C-3.125 0.625 -3.125 0.625 0 0 Z " fill="#F27DAE" transform="translate(63.125,246.375)"/>
<path d="M0 0 C0 6.93 0 13.86 0 21 C-6.93 21 -13.86 21 -21 21 C-14.23829344 13.11134235 -14.23829344 13.11134235 -11.38671875 10.25390625 C-10.77892578 9.64482422 -10.17113281 9.03574219 -9.54492188 8.40820312 C-8.62549805 7.49458008 -8.62549805 7.49458008 -7.6875 6.5625 C-7.05521484 5.92634766 -6.42292969 5.29019531 -5.77148438 4.63476562 C-4.86946289 3.73467773 -4.86946289 3.73467773 -3.94921875 2.81640625 C-3.40612061 2.27443604 -2.86302246 1.73246582 -2.3034668 1.17407227 C-1 0 -1 0 0 0 Z " fill="#EBDDD3" transform="translate(220,415)"/>
<path d="M0 0 C0.66 0 1.32 0 2 0 C2 13.53 2 27.06 2 41 C1.01 40.67 0.02 40.34 -1 40 C-1.02464775 34.46411467 -1.04283496 28.928261 -1.05493164 23.39233398 C-1.05997244 21.5075627 -1.06680498 19.62279535 -1.07543945 17.73803711 C-1.08751617 15.03498364 -1.09323068 12.33198169 -1.09765625 9.62890625 C-1.10281754 8.78099014 -1.10797882 7.93307404 -1.11329651 7.0594635 C-1.11349195 5.03928932 -1.06206211 3.01922066 -1 1 C-0.67 0.67 -0.34 0.34 0 0 Z " fill="#B2C8D2" transform="translate(165,20)"/>
<path d="M0 0 C0.33 0 0.66 0 1 0 C1 12.87 1 25.74 1 39 C0.01 39 -0.98 39 -2 39 C-2.04942365 33.927993 -2.08573068 28.85612606 -2.10986328 23.78393555 C-2.11992326 22.05832477 -2.13357276 20.33273105 -2.15087891 18.60717773 C-2.17512754 16.1273986 -2.18648301 13.64784477 -2.1953125 11.16796875 C-2.20563507 10.39599655 -2.21595764 9.62402435 -2.22659302 8.82865906 C-2.22739422 5.00718524 -2.17242595 3.25863893 0 0 Z " fill="#B9D0DB" transform="translate(249,21)"/>
</svg>
